<svg width="40" height="42" viewBox="0 0 40 42" fill="none" xmlns="http://www.w3.org/2000/svg">
<path d="M24.4606 24.0397V22.5132C24.4606 21.9171 24.4534 21.2045 24.439 20.3756C23.467 20.4297 22.4985 20.5359 21.5378 20.6938C20.4426 20.8504 19.3675 21.1245 18.3311 21.5116C17.7042 21.767 17.1282 22.1325 16.6303 22.5911C16.3573 22.8227 16.1392 23.1122 15.992 23.4386C15.8448 23.765 15.772 24.1201 15.7791 24.4781C15.7435 25.2011 15.9767 25.9118 16.4338 26.4732C16.9098 27.001 17.5207 27.3894 18.2007 27.5965C18.8865 27.8268 19.5907 27.9983 20.3056 28.1096C21.0238 28.2181 21.7494 28.2713 22.4758 28.2687C22.7372 28.2687 23.0861 28.2652 23.5226 28.2583C23.9594 28.2512 24.264 28.24 24.439 28.2257C24.439 27.9934 24.4428 27.51 24.4502 26.7755C24.4576 26.041 24.4611 25.1291 24.4606 24.0397ZM27.3499 30.2598C26.0846 30.5268 24.7943 30.6572 23.5012 30.6489C22.1293 30.6395 20.7594 30.5412 19.4002 30.3545C18.2084 30.2371 17.0401 29.9468 15.9318 29.493C14.9912 29.0572 14.1602 28.4163 13.4999 27.6172C12.8287 26.7158 12.48 25.6149 12.5097 24.4915C12.5394 23.368 12.9459 22.2871 13.6638 21.4224C14.5123 20.5256 15.5471 19.8259 16.6955 19.3725C17.9402 18.8632 19.2453 18.5156 20.5785 18.3383C22.0327 18.1261 23.3195 17.9771 24.439 17.8912C24.4057 17.093 24.1527 16.3195 23.708 15.6558C23.2587 15.0542 22.6507 14.5895 21.9523 14.3138C21.3879 14.0747 20.7934 13.9142 20.1855 13.8365C19.404 13.741 18.6171 13.6973 17.8299 13.706C17.3208 13.706 16.8435 13.7203 16.398 13.7489C15.9541 13.7783 15.8093 13.7895 15.1251 13.8181C15.1251 13.8181 13.8674 14.0242 13.8189 12.5015C13.7783 11.2033 15.1713 11.0951 15.1713 11.0951C15.3305 11.0808 15.5531 11.0704 16.1561 11.0331C16.7591 10.9957 17.5411 10.979 18.5013 10.979C19.8318 10.9571 21.1593 11.1111 22.4495 11.4371C23.5098 11.7109 24.4894 12.2344 25.3062 12.9638C26.0729 13.6632 26.6442 14.5501 26.9641 15.5373C27.3514 16.8462 27.528 18.2084 27.4875 19.5729C27.4923 21.0947 27.3499 30.2598 27.3499 30.2598Z" fill="#0079BE"/>
<path d="M39.888 20.7924C39.888 21.1827 39.7329 21.5571 39.4569 21.8331C39.1809 22.1091 38.8066 22.2641 38.4163 22.2641C38.026 22.2641 37.6516 22.1091 37.3756 21.8331C37.0996 21.5571 36.9446 21.1827 36.9446 20.7924C36.9341 16.3032 35.145 12.0011 31.969 8.82834C28.7931 5.65556 24.4893 3.8707 20.0001 3.86461H19.9205C19.5302 3.86461 19.1558 3.70954 18.8798 3.43355C18.6038 3.15755 18.4489 2.78325 18.4489 2.39293C18.4489 2.00261 18.6038 1.62821 18.8798 1.35221C19.1558 1.07621 19.5302 0.921143 19.9205 0.921143H20.0001C25.2689 0.928283 30.3202 3.02312 34.0478 6.74681C37.7753 10.4705 39.8754 15.5196 39.888 20.7884V20.7924Z" fill="#009145"/>
<path d="M21.4901 39.2286C21.4923 39.4208 21.4564 39.6115 21.3844 39.7898C21.3125 39.968 21.2059 40.1302 21.071 40.2671C20.936 40.4039 20.7752 40.5127 20.5979 40.587C20.4207 40.6614 20.2304 40.6999 20.0382 40.7003H20.0247C14.7596 40.6963 9.71007 38.6089 5.97906 34.894C2.24805 31.1791 0.138815 26.1386 0.112123 20.8736V20.8689C0.111595 20.4785 0.266108 20.1039 0.541733 19.8276C0.817358 19.5512 1.19155 19.3957 1.58187 19.3951C1.97219 19.3946 2.3467 19.5492 2.62307 19.8249C2.89944 20.1005 3.05497 20.4746 3.0555 20.8649C3.07713 25.3474 4.87093 29.6394 8.04544 32.8042C11.2199 35.9691 15.5175 37.7497 20 37.7577C20.3921 37.757 20.7686 37.9112 21.0476 38.1866C21.3267 38.462 21.4857 38.8365 21.4901 39.2286Z" fill="#F59E2A"/>
<path d="M24.4803 41.413C24.4803 41.296 24.509 41.242 24.6395 41.0996L26.6211 39.0225C27.4787 38.1195 27.7038 37.7552 27.7038 37.2246C27.7023 37.0615 27.6678 36.9004 27.6023 36.7511C27.5368 36.6017 27.4417 36.4672 27.3227 36.3557C27.2037 36.2441 27.0634 36.1578 26.9101 36.1021C26.7568 36.0464 26.5938 36.0223 26.431 36.0313C26.0979 36.0184 25.7715 36.1264 25.5118 36.3354C25.2522 36.5443 25.0768 36.8401 25.0181 37.1682C25.0049 37.2318 24.9686 37.2884 24.9163 37.3269C24.8639 37.3655 24.7991 37.3834 24.7344 37.3772C24.6696 37.371 24.6095 37.3412 24.5654 37.2933C24.5213 37.2455 24.4964 37.1831 24.4955 37.1181C24.4958 37.0677 24.5 37.0173 24.5082 36.9676C24.5986 36.5366 24.8427 36.1532 25.1948 35.8888C25.5469 35.6243 25.9831 35.4968 26.4222 35.5301C26.6549 35.5108 26.8891 35.5395 27.1103 35.6143C27.3314 35.6891 27.5349 35.8085 27.7082 35.9651C27.8814 36.1217 28.0206 36.3121 28.1173 36.5246C28.2139 36.7372 28.266 36.9673 28.2702 37.2008C28.2702 37.8491 27.9647 38.3463 26.9489 39.3995L25.2855 41.1346V41.1513H28.1986C28.2333 41.1493 28.268 41.1545 28.3006 41.1664C28.3332 41.1784 28.3631 41.1968 28.3883 41.2207C28.4135 41.2446 28.4337 41.2733 28.4474 41.3052C28.4612 41.3371 28.4682 41.3716 28.4682 41.4063C28.4682 41.441 28.4612 41.4754 28.4474 41.5073C28.4337 41.5392 28.4135 41.5679 28.3883 41.5918C28.3631 41.6156 28.3332 41.6341 28.3006 41.646C28.268 41.658 28.2333 41.6631 28.1986 41.6612H24.7589C24.5926 41.6556 24.4803 41.5633 24.4803 41.413Z" fill="#868686"/>
<path d="M28.7905 41.3048C28.7905 41.2011 28.8316 41.1016 28.905 41.0283C28.9783 40.955 29.0777 40.9138 29.1814 40.9138C29.2851 40.9138 29.3846 40.955 29.4579 41.0283C29.5312 41.1016 29.5724 41.2011 29.5724 41.3048C29.5724 41.4085 29.5312 41.5079 29.4579 41.5812C29.3846 41.6546 29.2851 41.6957 29.1814 41.6957C29.0777 41.6957 28.9783 41.6546 28.905 41.5812C28.8316 41.5079 28.7905 41.4085 28.7905 41.3048Z" fill="#868686"/>
<path d="M29.4921 38.6375C29.4921 36.7441 30.3155 35.5278 31.6782 35.5278C33.041 35.5278 33.8603 36.7394 33.8603 38.6304C33.8603 40.5396 33.0489 41.7487 31.6782 41.7487C30.3076 41.7487 29.4921 40.5435 29.4921 38.6375ZM33.2875 38.6375C33.2875 37.0536 32.6893 36.033 31.6782 36.033C30.6671 36.033 30.0689 37.0615 30.0689 38.6335C30.0689 40.2348 30.6584 41.25 31.6782 41.25C32.6981 41.25 33.2851 40.2349 33.2851 38.6375H33.2875Z" fill="#868686"/>
</svg>
