<svg width="31" height="30" viewBox="0 0 31 30" fill="none" xmlns="http://www.w3.org/2000/svg">
<path d="M0.443658 9.86182V27.584C0.439377 28.2178 0.68593 28.8276 1.12957 29.2803C1.57321 29.7329 2.17796 29.9916 2.8117 30H28.0717C28.7054 29.9916 29.3101 29.7329 29.7537 29.2803C30.1974 28.8276 30.4439 28.2178 30.4396 27.584V9.86182H0.443658Z" fill="#DADEE0"/>
<path d="M14.2576 13.6909H11.4946C11.3344 13.6909 11.1808 13.7544 11.0675 13.8677C10.9542 13.9809 10.8906 14.1347 10.8906 14.2949C10.8906 14.4551 10.9542 14.6089 11.0675 14.7222C11.1808 14.8354 11.3344 14.8989 11.4946 14.8989H14.2576C14.4178 14.8989 14.5714 14.8354 14.6847 14.7222C14.798 14.6089 14.8616 14.4551 14.8616 14.2949C14.8616 14.1347 14.798 13.9809 14.6847 13.8677C14.5714 13.7544 14.4178 13.6909 14.2576 13.6909Z" fill="#A4ABB1"/>
<path d="M19.7836 13.6909H17.0206C16.8604 13.6909 16.7068 13.7544 16.5935 13.8677C16.4802 13.9809 16.4166 14.1347 16.4166 14.2949C16.4166 14.4551 16.4802 14.6089 16.5935 14.7222C16.7068 14.8354 16.8604 14.8989 17.0206 14.8989H19.7836C19.9438 14.8989 20.0974 14.8354 20.2107 14.7222C20.324 14.6089 20.3876 14.4551 20.3876 14.2949C20.3876 14.1347 20.324 13.9809 20.2107 13.8677C20.0974 13.7544 19.9438 13.6909 19.7836 13.6909Z" fill="#A4ABB1"/>
<path d="M25.3086 13.6909H22.5436C22.3834 13.6909 22.2297 13.7544 22.1165 13.8677C22.0032 13.9809 21.9396 14.1347 21.9396 14.2949C21.9396 14.4551 22.0032 14.6089 22.1165 14.7222C22.2297 14.8354 22.3834 14.8989 22.5436 14.8989H25.3066C25.4668 14.8989 25.6204 14.8354 25.7336 14.7222C25.8469 14.6089 25.9106 14.4551 25.9106 14.2949C25.9106 14.1347 25.8469 13.9809 25.7336 13.8677C25.6204 13.7544 25.4668 13.6909 25.3066 13.6909" fill="#A4ABB1"/>
<path d="M14.2576 17.3149H11.4946C11.3344 17.3149 11.1808 17.3784 11.0675 17.4917C10.9542 17.605 10.8906 17.7588 10.8906 17.9189C10.8906 18.0791 10.9542 18.2329 11.0675 18.3462C11.1808 18.4595 11.3344 18.5229 11.4946 18.5229H14.2576C14.4178 18.5229 14.5714 18.4595 14.6847 18.3462C14.798 18.2329 14.8616 18.0791 14.8616 17.9189C14.8616 17.7588 14.798 17.605 14.6847 17.4917C14.5714 17.3784 14.4178 17.3149 14.2576 17.3149Z" fill="#A4ABB1"/>
<path d="M19.7836 17.3149H17.0206C16.8604 17.3149 16.7068 17.3784 16.5935 17.4917C16.4802 17.605 16.4166 17.7588 16.4166 17.9189C16.4166 18.0791 16.4802 18.2329 16.5935 18.3462C16.7068 18.4595 16.8604 18.5229 17.0206 18.5229H19.7836C19.9438 18.5229 20.0974 18.4595 20.2107 18.3462C20.324 18.2329 20.3876 18.0791 20.3876 17.9189C20.3876 17.7588 20.324 17.605 20.2107 17.4917C20.0974 17.3784 19.9438 17.3149 19.7836 17.3149Z" fill="#A4ABB1"/>
<path d="M25.3086 17.3149H22.5436C22.3834 17.3149 22.2297 17.3784 22.1165 17.4917C22.0032 17.605 21.9396 17.7588 21.9396 17.9189C21.9396 18.0791 22.0032 18.2329 22.1165 18.3462C22.2297 18.4595 22.3834 18.5229 22.5436 18.5229H25.3066C25.4668 18.5229 25.6204 18.4595 25.7336 18.3462C25.8469 18.2329 25.9106 18.0791 25.9106 17.9189C25.9106 17.7588 25.8469 17.605 25.7336 17.4917C25.6204 17.3784 25.4668 17.3149 25.3066 17.3149" fill="#A4ABB1"/>
<path d="M8.33765 17.3149H5.57458C5.41439 17.3149 5.26073 17.3784 5.14746 17.4917C5.03419 17.605 4.97058 17.7588 4.97058 17.9189C4.97058 18.0791 5.03419 18.2329 5.14746 18.3462C5.26073 18.4595 5.41439 18.5229 5.57458 18.5229H8.33765C8.49784 18.5229 8.65138 18.4595 8.76465 18.3462C8.87792 18.2329 8.94165 18.0791 8.94165 17.9189C8.94165 17.7588 8.87792 17.605 8.76465 17.4917C8.65138 17.3784 8.49784 17.3149 8.33765 17.3149Z" fill="#A4ABB1"/>
<path d="M14.2576 20.9399H11.4946C11.3344 20.9399 11.1808 21.0034 11.0675 21.1167C10.9542 21.23 10.8906 21.3838 10.8906 21.5439C10.8906 21.7041 10.9542 21.8579 11.0675 21.9712C11.1808 22.0845 11.3344 22.1479 11.4946 22.1479H14.2576C14.4178 22.1479 14.5714 22.0845 14.6847 21.9712C14.798 21.8579 14.8616 21.7041 14.8616 21.5439C14.8616 21.3838 14.798 21.23 14.6847 21.1167C14.5714 21.0034 14.4178 20.9399 14.2576 20.9399Z" fill="#A4ABB1"/>
<path d="M19.7836 20.9399H17.0206C16.8604 20.9399 16.7068 21.0034 16.5935 21.1167C16.4802 21.23 16.4166 21.3838 16.4166 21.5439C16.4166 21.7041 16.4802 21.8579 16.5935 21.9712C16.7068 22.0845 16.8604 22.1479 17.0206 22.1479H19.7836C19.9438 22.1479 20.0974 22.0845 20.2107 21.9712C20.324 21.8579 20.3876 21.7041 20.3876 21.5439C20.3876 21.3838 20.324 21.23 20.2107 21.1167C20.0974 21.0034 19.9438 20.9399 19.7836 20.9399Z" fill="#A4ABB1"/>
<path d="M25.3086 20.9399H22.5436C22.3834 20.9399 22.2297 21.0034 22.1165 21.1167C22.0032 21.23 21.9396 21.3838 21.9396 21.5439C21.9396 21.7041 22.0032 21.8579 22.1165 21.9712C22.2297 22.0845 22.3834 22.1479 22.5436 22.1479H25.3066C25.4668 22.1479 25.6204 22.0845 25.7336 21.9712C25.8469 21.8579 25.9106 21.7041 25.9106 21.5439C25.9106 21.3838 25.8469 21.23 25.7336 21.1167C25.6204 21.0034 25.4668 20.9399 25.3066 20.9399" fill="#A4ABB1"/>
<path d="M8.33765 20.9399H5.57458C5.41439 20.9399 5.26073 21.0034 5.14746 21.1167C5.03419 21.23 4.97058 21.3838 4.97058 21.5439C4.97058 21.7041 5.03419 21.8579 5.14746 21.9712C5.26073 22.0845 5.41439 22.1479 5.57458 22.1479H8.33765C8.49784 22.1479 8.65138 22.0845 8.76465 21.9712C8.87792 21.8579 8.94165 21.7041 8.94165 21.5439C8.94165 21.3838 8.87792 21.23 8.76465 21.1167C8.65138 21.0034 8.49784 20.9399 8.33765 20.9399Z" fill="#A4ABB1"/>
<path d="M8.33765 24.564H5.57458C5.41439 24.564 5.26073 24.6275 5.14746 24.7407C5.03419 24.854 4.97058 25.0078 4.97058 25.168C4.97058 25.3282 5.03419 25.4819 5.14746 25.5952C5.26073 25.7085 5.41439 25.772 5.57458 25.772H8.33765C8.49784 25.772 8.65138 25.7085 8.76465 25.5952C8.87792 25.4819 8.94165 25.3282 8.94165 25.168C8.94165 25.0078 8.87792 24.854 8.76465 24.7407C8.65138 24.6275 8.49784 24.564 8.33765 24.564Z" fill="#A4ABB1"/>
<path d="M13.8636 24.564H11.1006C10.9404 24.564 10.7867 24.6275 10.6735 24.7407C10.5602 24.854 10.4966 25.0078 10.4966 25.168C10.4966 25.3282 10.5602 25.4819 10.6735 25.5952C10.7867 25.7085 10.9404 25.772 11.1006 25.772H13.8636C14.0238 25.772 14.1774 25.7085 14.2906 25.5952C14.4039 25.4819 14.4677 25.3282 14.4677 25.168C14.4677 25.0078 14.4039 24.854 14.2906 24.7407C14.1774 24.6275 14.0238 24.564 13.8636 24.564Z" fill="#A4ABB1"/>
<path d="M19.3885 24.564H16.6256C16.4654 24.564 16.3118 24.6275 16.1985 24.7407C16.0852 24.854 16.0216 25.0078 16.0216 25.168C16.0216 25.3282 16.0852 25.4819 16.1985 25.5952C16.3118 25.7085 16.4654 25.772 16.6256 25.772H19.3885C19.5487 25.772 19.7024 25.7085 19.8157 25.5952C19.9289 25.4819 19.9926 25.3282 19.9926 25.168C19.9926 25.0078 19.9289 24.854 19.8157 24.7407C19.7024 24.6275 19.5487 24.564 19.3885 24.564Z" fill="#A4ABB1"/>
<path d="M22.7437 0.600098V5.83496C22.7437 5.99197 22.806 6.1424 22.917 6.25342C23.028 6.36444 23.1786 6.42676 23.3356 6.42676C23.4926 6.42676 23.6431 6.36444 23.7542 6.25342C23.8652 6.1424 23.9276 5.99197 23.9276 5.83496V0.600098C23.9276 0.443089 23.8652 0.292174 23.7542 0.181152C23.6431 0.0701308 23.4926 0.0078125 23.3356 0.0078125C23.1786 0.0078125 23.028 0.0701308 22.917 0.181152C22.806 0.292174 22.7437 0.443089 22.7437 0.600098Z" fill="#1E467E"/>
<path d="M23.9276 2.61279V4.10693C24.4318 4.24982 24.8673 4.57046 25.1537 5.00928C25.4401 5.44809 25.5581 5.9756 25.486 6.49463C25.4138 7.01366 25.1563 7.48892 24.7611 7.83301C24.3659 8.1771 23.8596 8.3667 23.3356 8.3667C22.8116 8.3667 22.3052 8.1771 21.91 7.83301C21.5148 7.48892 21.2574 7.01366 21.1853 6.49463C21.1132 5.9756 21.2312 5.44809 21.5176 5.00928C21.804 4.57046 22.2395 4.24982 22.7437 4.10693V2.60693H8.14355V4.10107C8.64771 4.24397 9.08322 4.56411 9.36963 5.00293C9.65604 5.44175 9.77404 5.96974 9.7019 6.48877C9.62977 7.0078 9.37239 7.48306 8.97717 7.82715C8.58196 8.17124 8.07565 8.36084 7.55164 8.36084C7.02762 8.36084 6.52131 8.17124 6.1261 7.82715C5.73088 7.48306 5.47338 7.0078 5.40125 6.48877C5.32911 5.96974 5.44711 5.44175 5.73352 5.00293C6.01993 4.56411 6.45544 4.24397 6.95959 4.10107V2.60107H0.443604V9.8501H30.4436V2.60107L23.9276 2.61279Z" fill="#0079BE"/>
<path d="M6.95654 0.600098V5.83496C6.95654 5.99197 7.01898 6.1424 7.13 6.25342C7.24103 6.36444 7.39158 6.42676 7.54858 6.42676C7.70559 6.42676 7.85614 6.36444 7.96716 6.25342C8.07818 6.1424 8.14062 5.99197 8.14062 5.83496V0.600098C8.14062 0.443089 8.07818 0.292174 7.96716 0.181152C7.85614 0.0701308 7.70559 0.0078125 7.54858 0.0078125C7.39158 0.0078125 7.24103 0.0701308 7.13 0.181152C7.01898 0.292174 6.95654 0.443089 6.95654 0.600098Z" fill="#1E467E"/>
</svg>
