<svg width="90" height="45" viewBox="0 0 90 45" fill="none" xmlns="http://www.w3.org/2000/svg">
<path d="M90.0001 28.8361V44H87.0591V34.49H86.9651L85.4471 44H83.1L81.5931 34.49H81.488V44H78.5601V28.8361H82.371L84.2711 39.486L86.1871 28.8361H90.0001Z" fill="#0079BE"/>
<path d="M76.634 31.543V41.283C76.634 42.349 76.508 44 74.457 44H72.04C69.977 44 69.8621 42.349 69.8621 41.283V31.543C69.8621 30.477 69.977 28.8361 72.04 28.8361H74.457C76.508 28.8361 76.634 30.477 76.634 31.543ZM73.7141 41.543V31.207C73.7167 31.1443 73.7068 31.0818 73.685 31.0229C73.6632 30.9641 73.6298 30.9102 73.5869 30.8645C73.5439 30.8188 73.4923 30.7821 73.4349 30.7566C73.3776 30.7311 73.3158 30.7172 73.2531 30.7159C73.1897 30.7149 73.1268 30.7272 73.0685 30.752C73.0101 30.7767 72.9576 30.8132 72.9142 30.8595C72.8709 30.9057 72.8378 30.9605 72.8169 31.0204C72.796 31.0802 72.7879 31.1439 72.7931 31.207V41.543C72.7879 41.6061 72.796 41.6698 72.8169 41.7296C72.8378 41.7895 72.8709 41.8443 72.9142 41.8905C72.9576 41.9368 73.0101 41.9733 73.0685 41.998C73.1268 42.0228 73.1897 42.0351 73.2531 42.0341C73.3157 42.0328 73.3774 42.019 73.4347 41.9935C73.4919 41.9681 73.5436 41.9315 73.5865 41.8859C73.6294 41.8402 73.6628 41.7865 73.6847 41.7278C73.7066 41.6691 73.7166 41.6065 73.7141 41.5439V41.543Z" fill="#0079BE"/>
<path d="M67.9371 31.543V36.131C67.9371 37.197 67.811 38.837 65.759 38.837H64.084V44H61.1541V28.8361H65.7541C67.8111 28.8361 67.9371 30.477 67.9371 31.543ZM64.9951 36.413V31.47C64.9951 30.999 64.775 30.717 64.451 30.717H64.084V37.165H64.451C64.775 37.165 64.9951 36.894 64.9951 36.413Z" fill="#0079BE"/>
<path d="M59.2281 28.8361V44H56.3V30.717H55.3791V44H52.4371V28.8361H59.2281Z" fill="#0079BE"/>
<path d="M50.519 38.231V41.283C50.519 42.349 50.3831 44 48.3311 44H45.9001C43.8481 44 43.7231 42.349 43.7231 41.283V38.691H46.6641V41.5439C46.6579 41.6073 46.6653 41.6713 46.6859 41.7316C46.7064 41.7918 46.7395 41.8471 46.783 41.8936C46.8265 41.94 46.8795 41.9766 46.9383 42.001C46.9971 42.0254 47.0605 42.037 47.1241 42.035C47.186 42.0326 47.2468 42.0179 47.303 41.9918C47.3593 41.9658 47.4097 41.9289 47.4517 41.8833C47.4936 41.8377 47.5261 41.7842 47.5472 41.726C47.5684 41.6677 47.5779 41.6058 47.5751 41.5439V38.012C47.5751 37.542 47.4911 37.019 46.4031 37.019H45.2101V35.3571H46.4451C47.2821 35.3571 47.5751 35.157 47.5751 34.228V31.208C47.5779 31.1461 47.5684 31.0842 47.5472 31.026C47.5261 30.9678 47.4936 30.9143 47.4517 30.8687C47.4097 30.823 47.3593 30.7862 47.303 30.7601C47.2468 30.7341 47.186 30.7195 47.1241 30.717C47.0605 30.715 46.9971 30.7266 46.9383 30.751C46.8795 30.7754 46.8265 30.8121 46.783 30.8585C46.7395 30.905 46.7064 30.9601 46.6859 31.0204C46.6653 31.0807 46.6579 31.1446 46.6641 31.208V33.6851H43.7231V31.543C43.7231 30.477 43.8481 28.8361 45.9001 28.8361H48.3281C50.3801 28.8361 50.5161 30.477 50.5161 31.543V33.967C50.5514 34.2407 50.5246 34.5188 50.4375 34.7806C50.3504 35.0425 50.2053 35.2813 50.013 35.4792C49.8207 35.6772 49.5863 35.8292 49.3271 35.9238C49.0679 36.0185 48.7906 36.0534 48.5161 36.026V36.173C48.7925 36.1369 49.0735 36.1658 49.3369 36.2573C49.6002 36.3489 49.8385 36.5005 50.033 36.7003C50.2274 36.9001 50.3726 37.1425 50.457 37.4082C50.5414 37.6739 50.5626 37.9556 50.519 38.231Z" fill="#0079BE"/>
<path d="M40.9421 28.8361L42.47 44H39.6L39.3281 39.9659H37.946L37.6741 44H34.8061L36.334 28.8361H40.9421ZM39.225 38.2939L38.725 30.717H38.5571L38.0571 38.2939H39.225Z" fill="#0079BE"/>
<path d="M34.735 28.8361V30.717H32.076V44H29.1451V28.8361H34.735Z" fill="#0079BE"/>
<path d="M27.2621 28.8311V39.2C25.5447 41.0405 23.3962 42.4248 21.0104 43.228C18.6246 44.0312 16.0763 44.2282 13.5955 43.801C11.1146 43.3738 8.77897 42.3359 6.79919 40.781C4.81942 39.2261 3.25767 37.203 2.25476 34.894C1.25185 32.585 0.839292 30.0628 1.05426 27.5546C1.26922 25.0464 2.10496 22.631 3.48614 20.5264C4.86732 18.4217 6.75057 16.6938 8.96606 15.4984C11.1816 14.303 13.6597 13.6778 16.1771 13.679V25.079C13.9172 25.0763 11.7488 25.9709 10.1481 27.566C9.76106 27.9545 9.41087 28.378 9.10205 28.8311C7.92251 30.587 7.43819 32.7187 7.74322 34.8119C8.04825 36.9051 9.12085 38.81 10.7524 40.1563C12.384 41.5025 14.458 42.194 16.571 42.0959C18.684 41.9979 20.6851 41.1175 22.1851 39.626C22.1961 39.616 22.2061 39.616 22.2061 39.606C22.2061 39.596 22.226 39.595 22.238 39.585C23.0377 38.784 23.4864 37.6982 23.4855 36.5664C23.4845 35.4346 23.034 34.3497 22.233 33.5501C21.4321 32.7504 20.3463 32.3017 19.2145 32.3026C18.0828 32.3036 16.9977 32.7541 16.1981 33.5551L16.1771 33.5761V28.8311H27.2621Z" fill="#0079BE"/>
<path d="M25.2621 8.09998C26.0639 11.1725 26.234 14.3758 25.7621 17.516C25.2373 21.2468 23.8424 24.8019 21.6901 27.894C20.7004 26.5197 19.8716 25.0363 19.22 23.473C18.3996 21.4163 17.8338 19.267 17.535 17.073C17.417 16.0706 17.3576 15.0623 17.3571 14.053C17.3596 11.7003 17.6981 9.36007 18.3621 7.10303C19.1353 4.65367 20.2485 2.32499 21.6691 0.185059C23.3118 2.59781 24.5272 5.27511 25.2621 8.09998ZM24.9901 15C25.0169 12.6576 24.7212 10.3227 24.1111 8.06104C23.5249 6.06797 22.7027 4.15203 21.662 2.354C20.6409 4.18694 19.8298 6.12926 19.2441 8.14404C18.7787 9.86571 18.4945 11.6312 18.3961 13.412C18.3328 15.3534 18.4628 17.2963 18.7841 19.212C18.7651 17.2026 18.9471 15.1963 19.3271 13.223C19.8154 10.9996 20.6008 8.85195 21.662 6.83801C23.7145 10.6105 24.7053 14.869 24.5291 19.16C24.8139 17.7911 24.9683 16.3981 24.9901 15ZM21.6721 26.8719C22.5221 25.2567 22.9438 23.4506 22.897 21.626C22.8477 19.9726 22.4382 18.3498 21.6971 16.871C20.8719 18.3989 20.4402 20.1084 20.441 21.845C20.4546 23.5949 20.8761 25.3175 21.6721 26.876V26.8719Z" fill="#0079BE"/>
</svg>
