<svg width="12" height="13" viewBox="0 0 12 13" fill="none" xmlns="http://www.w3.org/2000/svg">
<path d="M10.4606 7.088C10.4846 6.896 10.5026 6.704 10.5026 6.5C10.5026 6.296 10.4846 6.104 10.4606 5.912L11.7266 4.922C11.8406 4.832 11.8706 4.67 11.7986 4.538L10.5986 2.462C10.5266 2.33 10.3646 2.282 10.2326 2.33L8.73861 2.93C8.42661 2.69 8.09061 2.492 7.72461 2.342L7.49661 0.752C7.47861 0.608 7.35261 0.5 7.20261 0.5H4.80261C4.65261 0.5 4.52661 0.608 4.50861 0.752L4.28061 2.342C3.91461 2.492 3.57861 2.696 3.26661 2.93L1.77261 2.33C1.63461 2.276 1.47861 2.33 1.40661 2.462L0.206607 4.538C0.128607 4.67 0.164608 4.832 0.278608 4.922L1.54461 5.912C1.52061 6.104 1.50261 6.302 1.50261 6.5C1.50261 6.698 1.52061 6.896 1.54461 7.088L0.278608 8.078C0.164608 8.168 0.134607 8.33 0.206607 8.462L1.40661 10.538C1.47861 10.67 1.64061 10.718 1.77261 10.67L3.26661 10.07C3.57861 10.31 3.91461 10.508 4.28061 10.658L4.50861 12.248C4.52661 12.392 4.65261 12.5 4.80261 12.5H7.20261C7.35261 12.5 7.47861 12.392 7.49661 12.248L7.72461 10.658C8.09061 10.508 8.42661 10.304 8.73861 10.07L10.2326 10.67C10.3706 10.724 10.5266 10.67 10.5986 10.538L11.7986 8.462C11.8706 8.33 11.8406 8.168 11.7266 8.078L10.4606 7.088ZM6.00261 8.6C4.84461 8.6 3.90261 7.658 3.90261 6.5C3.90261 5.342 4.84461 4.4 6.00261 4.4C7.16061 4.4 8.10261 5.342 8.10261 6.5C8.10261 7.658 7.16061 8.6 6.00261 8.6Z" fill="#00395C" fill-opacity="0.8"/>
</svg>
