<svg width="24" height="25" viewBox="0 0 24 25" fill="none" xmlns="http://www.w3.org/2000/svg">
<path d="M2.85937 0.404089C1.79531 0.570105 0.899993 1.34159 0.524993 2.40604L0.39843 2.77225L0.384368 6.55155C0.370305 10.2478 0.374993 10.3357 0.468743 10.6971C0.618743 11.2635 0.815618 11.6101 1.24218 12.0496C1.80937 12.6404 2.49374 12.948 3.24374 12.9529H3.51093L3.52499 14.1101C3.53906 15.2674 3.53906 15.2723 3.66562 15.492C3.93749 15.9705 4.32187 16.2 4.85156 16.1951C5.37656 16.1902 5.45624 16.1316 6.99843 14.5252C7.75312 13.7439 8.38593 13.0994 8.39999 13.0994C8.41874 13.0994 8.44218 14.4764 8.44687 16.1609C8.46093 19.1883 8.46562 19.2322 8.56406 19.5105C8.91093 20.4627 9.61406 21.1609 10.5469 21.4783C10.7766 21.5564 11.0437 21.5662 13.1484 21.5857L15.4922 21.6004L16.9453 23.1092C18.5672 24.7937 18.6234 24.8377 19.1719 24.8328C19.6922 24.8328 20.1187 24.5642 20.3437 24.1004C20.4562 23.8758 20.4609 23.8269 20.475 22.7332L20.4891 21.5955H20.6953C21.0844 21.5955 21.6234 21.4539 22.0312 21.2488C22.5609 20.9754 23.0578 20.4627 23.3062 19.9353C23.6297 19.2517 23.625 19.3396 23.625 15.2918C23.625 11.8103 23.6203 11.6346 23.5312 11.2683C23.2547 10.1404 22.3406 9.26639 21.2156 9.05155C21.0375 9.01737 19.9781 8.99784 18.2484 8.99784H15.5625V6.00467C15.5625 2.73807 15.5578 2.70878 15.2859 2.10331C14.9344 1.33182 14.2453 0.726355 13.425 0.472448C13.1672 0.389441 12.8016 0.384558 8.13281 0.374792C5.37656 0.369909 2.99999 0.384558 2.85937 0.404089ZM13.3125 1.65897C13.6922 1.8201 14.0719 2.19608 14.2594 2.59159L14.4141 2.91874V6.65409V10.3894L14.2687 10.7068C14.0859 11.1072 13.7953 11.4099 13.4062 11.6053L13.1016 11.7566L10.6172 11.781C9.08437 11.7957 8.10468 11.825 8.05781 11.8543C8.01562 11.8787 7.28906 12.6062 6.44999 13.4656C5.60624 14.325 4.87968 15.033 4.82812 15.0428C4.78124 15.0525 4.71093 15.0086 4.66874 14.9451C4.60312 14.8523 4.59374 14.6473 4.59374 13.5242C4.59374 11.7517 4.63593 11.825 3.53906 11.781C2.87812 11.7566 2.81718 11.7469 2.53124 11.6053C2.16093 11.4246 1.82812 11.0828 1.64999 10.7117L1.52343 10.4383V6.6785V2.91874L1.64999 2.64042C1.88906 2.10819 2.38593 1.68827 2.90624 1.58085C3.02343 1.55643 5.35312 1.54178 8.08593 1.54178L13.0547 1.55155L13.3125 1.65897ZM21.1641 10.2381C21.2953 10.2723 21.4687 10.3406 21.5578 10.3894C21.825 10.531 22.1719 10.907 22.3312 11.2195L22.4766 11.5125V15.2723V19.032L22.35 19.3103C22.2047 19.6375 21.9 19.9939 21.6234 20.1648C21.3094 20.3553 20.9859 20.4236 20.3766 20.4236C19.7859 20.4236 19.6172 20.4725 19.4812 20.6775C19.4156 20.7703 19.4062 20.99 19.4062 22.0935C19.4062 22.8064 19.3875 23.451 19.3641 23.5144C19.3125 23.6512 19.1953 23.7146 19.0969 23.656C19.0594 23.6365 18.3937 22.9578 17.6156 22.157C16.8328 21.3514 16.1344 20.6385 16.0641 20.5701L15.9281 20.448L13.4391 20.4236C10.9641 20.3992 10.9453 20.3992 10.6781 20.2869C10.3219 20.1355 9.92343 19.7547 9.73593 19.3787L9.58593 19.0808L9.57187 16.0193L9.55781 12.9578L11.4 12.9432C13.1859 12.9285 13.2516 12.9236 13.5469 12.8113C14.0297 12.6355 14.3391 12.4256 14.7234 12.0301C15.1359 11.5955 15.3797 11.1316 15.5016 10.5408L15.5812 10.1697H18.2531C20.3344 10.1697 20.9812 10.1844 21.1641 10.2381Z" fill="#215575" fill-opacity="0.8"/>
<path d="M7.49999 3.48517C6.73124 3.58771 6.05156 4.25665 6.16406 4.79864C6.20624 5.00372 6.43593 5.18927 6.65156 5.18927C6.84843 5.18927 6.91406 5.14532 7.10624 4.87677C7.27499 4.63263 7.54218 4.50568 7.87499 4.50568C8.74218 4.50568 8.94374 5.27716 8.23593 5.87775C7.79531 6.25372 7.58906 6.47833 7.47187 6.71759C7.26093 7.14239 7.24218 7.94318 7.43437 8.09454C7.48593 8.13849 7.63124 8.1629 7.79531 8.16779C8.02031 8.16779 8.08593 8.14825 8.17968 8.04572C8.27812 7.94806 8.29687 7.8797 8.29687 7.65509C8.29687 7.23517 8.39062 7.07404 8.95312 6.50763C9.37499 6.08771 9.49218 5.93634 9.61406 5.6629C10.0828 4.61798 9.49218 3.66583 8.25937 3.48029C7.90781 3.42657 7.92187 3.42657 7.49999 3.48517Z" fill="#215575" fill-opacity="0.8"/>
<path d="M7.49531 8.72927C7.3125 8.83181 7.21875 9.01736 7.21875 9.26638C7.21875 9.44705 7.24687 9.52029 7.37344 9.65701C7.66875 9.99392 8.12812 9.9158 8.30625 9.50076C8.38594 9.30544 8.39062 9.2615 8.33437 9.08083C8.22656 8.71951 7.81406 8.54861 7.49531 8.72927Z" fill="#215575" fill-opacity="0.8"/>
<path d="M12.3469 14.4666C12.0094 14.5496 11.7188 14.9305 11.7188 15.2967C11.7188 15.3895 11.7609 15.5555 11.8172 15.6727C12.1922 16.4832 13.3594 16.2 13.3594 15.3016C13.3594 14.7303 12.8766 14.3348 12.3469 14.4666Z" fill="#215575" fill-opacity="0.8"/>
<path d="M15.8672 14.4617C15.6609 14.5154 15.539 14.5935 15.4031 14.7595C15 15.2625 15.2625 15.99 15.9047 16.1463C16.2515 16.2293 16.7203 15.9021 16.8234 15.5017C16.9781 14.9158 16.425 14.3201 15.8672 14.4617Z" fill="#215575" fill-opacity="0.8"/>
<path d="M19.2516 14.4861C18.6516 14.7156 18.5016 15.5262 18.9797 15.9461C19.7109 16.5857 20.7141 15.6433 20.1891 14.8133C19.9922 14.5056 19.5797 14.364 19.2516 14.4861Z" fill="#215575" fill-opacity="0.8"/>
</svg>
