<svg width="130" height="69" viewBox="0 0 130 69" fill="none" xmlns="http://www.w3.org/2000/svg">
<rect x="0.944336" width="129.056" height="69" fill="#0079BE"/>
<path d="M110.883 40.0801V55.2058H107.854V45.7152H107.757L106.194 55.2058H103.779L102.228 45.7152H102.119V55.2058H99.0984V40.0801H103.026L104.99 50.7029L106.964 40.0801H110.883Z" fill="white"/>
<path d="M97.1186 42.7794V52.4949C97.1186 53.5588 96.9877 55.2058 94.8757 55.2058H92.3879C90.2629 55.2058 90.145 53.5588 90.145 52.4949V42.7794C90.145 41.7154 90.2629 40.0801 92.3879 40.0801H94.8757C96.989 40.0801 97.1186 41.7192 97.1186 42.7794ZM94.1071 52.7558V42.4465C94.1103 42.3843 94.1004 42.322 94.0782 42.2635C94.0559 42.2051 94.0216 42.1513 93.9774 42.1056C93.9331 42.0599 93.8798 42.0235 93.8205 41.9977C93.7611 41.9719 93.697 41.9575 93.6318 41.9556C93.566 41.9552 93.5007 41.9678 93.4403 41.9928C93.3799 42.0178 93.3256 42.0545 93.281 42.1007C93.2364 42.1469 93.2024 42.2016 93.1811 42.2611C93.1599 42.3206 93.152 42.3839 93.1578 42.4465V52.7558C93.152 52.8184 93.1599 52.8811 93.1811 52.9406C93.2024 53.0001 93.2364 53.0547 93.281 53.101C93.3256 53.1472 93.3799 53.1838 93.4403 53.2089C93.5007 53.2339 93.566 53.2471 93.6318 53.2467C93.6973 53.2453 93.7619 53.2314 93.8217 53.2058C93.8815 53.1802 93.9353 53.143 93.9799 53.0973C94.0246 53.0516 94.0592 52.9981 94.0817 52.9394C94.1042 52.8807 94.1142 52.8183 94.1111 52.7558H94.1071Z" fill="white"/>
<path d="M88.1614 42.7794V47.356C88.1614 48.4187 88.0305 50.0559 85.9185 50.0559H84.1941V55.2058H81.176V40.0801H85.9185C88.0318 40.0801 88.1614 41.7192 88.1614 42.7794ZM85.1316 47.6371V42.7074C85.1316 42.2379 84.9051 41.9581 84.5712 41.9581H84.1941V48.3901H84.5646C84.9051 48.3876 85.1316 48.1166 85.1316 47.6371Z" fill="white"/>
<path d="M79.1966 40.0801V55.2058H76.1851V41.9568H75.2371V55.2058H72.1968V40.0801H79.1966Z" fill="white"/>
<path d="M70.2233 49.4512V52.4944C70.2233 53.5583 70.0832 55.2053 67.9712 55.2053H65.4703C63.357 55.2053 63.2274 53.5583 63.2274 52.4944V49.9091H66.2573V52.7554C66.2504 52.8181 66.2576 52.8814 66.2784 52.9413C66.2992 53.0012 66.3332 53.0565 66.378 53.1029C66.4228 53.1493 66.4775 53.1861 66.5384 53.2108C66.5993 53.2355 66.6651 53.2476 66.7312 53.2462C66.7955 53.2432 66.8585 53.228 66.9167 53.2017C66.9748 53.1754 67.0269 53.1382 67.07 53.0925C67.113 53.0469 67.1462 52.9937 67.1677 52.9358C67.1891 52.878 67.1983 52.8166 67.1948 52.7554V49.2311C67.1948 48.7628 67.1096 48.2421 65.9875 48.2421H64.7594V46.5891H66.0307C66.8936 46.5891 67.1948 46.3907 67.1948 45.4654V42.4533C67.1983 42.392 67.1891 42.3307 67.1677 42.2728C67.1462 42.2149 67.113 42.1617 67.07 42.1161C67.0269 42.0705 66.9748 42.0333 66.9167 42.007C66.8585 41.9806 66.7955 41.9655 66.7312 41.9625C66.6651 41.961 66.5993 41.9731 66.5384 41.9978C66.4775 42.0225 66.4228 42.0593 66.378 42.1057C66.3332 42.1522 66.2992 42.2074 66.2784 42.2673C66.2576 42.3272 66.2504 42.3905 66.2573 42.4533V44.9245H63.2222V42.7868C63.2222 41.7229 63.3531 40.0869 65.4651 40.0869H67.966C70.0779 40.0869 70.2181 41.7229 70.2181 42.7868V45.2056C70.2574 45.4762 70.2321 45.7518 70.144 46.0117C70.0559 46.2716 69.9073 46.5087 69.7093 46.7062C69.5114 46.9036 69.2692 47.0563 69.0008 47.1519C68.7325 47.2475 68.4449 47.284 68.1597 47.2586V47.4043C68.4462 47.3718 68.7367 47.4032 69.0084 47.4958C69.2801 47.5884 69.5256 47.7395 69.7256 47.9379C69.9256 48.1362 70.0746 48.3765 70.1609 48.639C70.2473 48.9016 70.2686 49.1795 70.2233 49.4512V49.4512Z" fill="white"/>
<path d="M60.3612 40.0801L61.9325 55.2058H58.9812L58.701 51.1821H57.2777L56.9988 55.2058H54.0449L55.6161 40.0801H60.3612ZM58.5936 49.5139L58.0699 41.9556H57.897L57.3733 49.5139H58.5936Z" fill="white"/>
<path d="M53.9691 40.0804V41.9535H51.2312V55.2025H48.2197V40.0762L53.9691 40.0804Z" fill="white"/>
<path d="M46.2725 40.0744V50.4155C44.8201 51.9224 43.0558 53.1259 41.0911 53.9495C39.1263 54.7732 37.0038 55.1991 34.8576 55.2007C30.6879 55.1496 26.7071 53.5341 23.7775 50.7039C20.8478 47.8737 19.2051 44.0569 19.2051 40.0799C19.2051 36.1029 20.8478 32.2855 23.7775 29.4553C26.7071 26.6251 30.6879 25.0096 34.8576 24.9585V36.3307C33.7017 36.3309 32.5575 36.5508 31.4915 36.977C30.4255 37.4032 29.4591 38.0275 28.6486 38.8135C28.2499 39.2017 27.8892 39.6236 27.571 40.0744C26.4364 41.7138 25.9245 43.6743 26.1206 45.6297C26.3166 47.5851 27.2088 49.4182 28.6486 50.8228C29.4557 51.6098 30.4192 52.2353 31.4827 52.663C32.5462 53.0907 33.6885 53.3117 34.8427 53.3136C35.9969 53.3154 37.14 53.0977 38.205 52.6734C39.2701 52.2491 40.2357 51.6267 41.0456 50.8423C41.0561 50.8323 41.0666 50.8328 41.0666 50.8228C41.0666 50.8128 41.0875 50.8115 41.0993 50.8015C41.9231 49.9975 42.3843 48.9178 42.3843 47.7937C42.3843 46.6695 41.9231 45.5898 41.0993 44.7858C40.6932 44.3923 40.209 44.0803 39.675 43.867C39.141 43.6536 38.5679 43.5438 37.9889 43.5438C37.41 43.5438 36.8368 43.6536 36.3028 43.867C35.7688 44.0803 35.2846 44.3923 34.8785 44.7858L34.8576 44.8072V40.0744H46.2725V40.0744Z" fill="white"/>
<path d="M44.2141 19.3906C45.0406 22.4575 45.2164 25.6509 44.7313 28.7835C44.1959 32.4975 42.7614 36.0417 40.5414 39.1356C39.5208 37.7628 38.6677 36.2838 37.9986 34.7266C37.1535 32.6742 36.5706 30.5323 36.2624 28.347C36.141 27.3467 36.0798 26.3406 36.0791 25.3337C36.082 22.9882 36.4306 20.6544 37.1148 18.4016C37.9094 15.9619 39.0551 13.6394 40.5191 11.5C42.2111 13.9114 43.4606 16.5795 44.2141 19.3906V19.3906ZM43.9339 26.2824C43.9612 23.9467 43.6564 21.6183 43.0278 19.3607C42.4251 17.375 41.5786 15.464 40.506 13.6676C39.4542 15.4985 38.6198 17.4356 38.0183 19.443C37.5386 21.1613 37.2464 22.9222 37.1462 24.6977C37.0787 26.6338 37.2102 28.5719 37.539 30.4835C37.5196 28.4798 37.7073 26.479 38.0994 24.5105C38.601 22.2954 39.4094 20.1536 40.5034 18.1418C41.6039 20.1579 42.4226 22.3032 42.9388 24.5221C43.3443 26.4677 43.5178 28.4507 43.456 30.4335C43.7503 29.067 43.9103 27.6772 43.9339 26.2824V26.2824ZM40.5165 38.1253C41.3926 36.51 41.8263 34.7099 41.7774 32.8919C41.7265 31.2436 41.3035 29.6253 40.5375 28.147C39.6871 29.6753 39.2429 31.3794 39.2438 33.1096C39.2594 34.8526 39.6948 36.5683 40.5165 38.1253V38.1253Z" fill="white"/>
</svg>
