<svg width="21" height="21" viewBox="0 0 21 21" fill="none" xmlns="http://www.w3.org/2000/svg">
<path fill-rule="evenodd" clip-rule="evenodd" d="M12.0491 13.9633C10.7873 14.9274 9.21054 15.5 7.5 15.5C3.35786 15.5 0 12.1421 0 8C0 3.85786 3.35786 0.5 7.5 0.5C11.6421 0.5 15 3.85786 15 8C15 9.71053 14.4274 11.2873 13.4633 12.5491L20.0055 19.0913L18.5913 20.5055L12.0491 13.9633ZM13 8C13 11.0376 10.5376 13.5 7.5 13.5C4.46243 13.5 2 11.0376 2 8C2 4.96243 4.46243 2.5 7.5 2.5C10.5376 2.5 13 4.96243 13 8Z" fill="#00395C" fill-opacity="0.8"/>
</svg>
