<svg width="20" height="24" viewBox="0 0 20 24" fill="none" xmlns="http://www.w3.org/2000/svg">
<path d="M20 5.15984C20.0054 4.68585 19.8236 4.22887 19.4941 3.88812C19.1645 3.54736 18.7139 3.35035 18.24 3.33984H5C4.5261 3.35035 4.07546 3.54736 3.74594 3.88812C3.41642 4.22887 3.23462 4.68585 3.24 5.15984V22.1598C3.23469 22.3962 3.27601 22.6314 3.36159 22.8518C3.44718 23.0722 3.57535 23.2736 3.73879 23.4445C3.90223 23.6154 4.09774 23.7523 4.31415 23.8476C4.53055 23.9429 4.7636 23.9946 5 23.9998H15L20 19.1398V5.15984Z" fill="#DADEE0"/>
<path d="M3.23999 5.16C3.23461 4.68601 3.41642 4.22903 3.74594 3.88827C4.07546 3.54752 4.52609 3.3505 4.99999 3.34H16.76V1.82C16.7654 1.34601 16.5836 0.889027 16.2541 0.548273C15.9245 0.20752 15.4739 0.0105032 15 0L1.75999 0C1.28609 0.0105032 0.835456 0.20752 0.505936 0.548273C0.176416 0.889027 -0.00538913 1.34601 -5.84064e-06 1.82V18.82C-0.00538913 19.294 0.176416 19.751 0.505936 20.0917C0.835456 20.4325 1.28609 20.6295 1.75999 20.64H3.23999V5.16Z" fill="#E54629"/>
<path d="M16.76 19.1401H20L15 24.0001V21.0001C14.992 20.7621 15.0313 20.5248 15.1157 20.3021C15.2001 20.0793 15.3278 19.8756 15.4915 19.7026C15.6552 19.5295 15.8517 19.3907 16.0694 19.2942C16.2871 19.1977 16.5219 19.1453 16.76 19.1401Z" fill="#F2F2F2"/>
<path d="M16.68 13.7301C15.9 12.9101 13.75 13.2401 13.24 13.3101C12.6766 12.7384 12.1893 12.0964 11.79 11.4001C12.0718 10.5944 12.2369 9.75253 12.28 8.90008C12.28 8.14008 11.97 7.33008 11.13 7.33008C10.9825 7.33161 10.8379 7.37105 10.7101 7.4446C10.5822 7.51815 10.4755 7.62335 10.4 7.75008C10.2415 8.28023 10.1917 8.83693 10.2536 9.3868C10.3154 9.93667 10.4877 10.4684 10.76 10.9501C10.3727 12.1395 9.87726 13.291 9.28001 14.3901C8.41001 14.7501 6.57001 15.6001 6.42001 16.5101C6.39093 16.6452 6.39779 16.7855 6.4399 16.9171C6.48201 17.0487 6.55791 17.167 6.66001 17.2601C6.86746 17.4407 7.13504 17.537 7.41001 17.5301C8.53001 17.5301 9.62001 15.9901 10.41 14.6901C11.2569 14.4024 12.1222 14.1719 13 14.0001C13.7386 14.7209 14.7187 15.1415 15.75 15.1801C16.47 15.1801 16.75 14.8801 16.84 14.6001C16.9046 14.4559 16.9238 14.2956 16.8953 14.1402C16.8667 13.9849 16.7916 13.8418 16.68 13.7301ZM15.93 14.2401C15.93 14.4501 15.63 14.6601 15.14 14.5401C14.5778 14.3906 14.0532 14.1249 13.6 13.7601C14.2333 13.6675 14.8767 13.6675 15.51 13.7601C15.75 13.7901 16 13.9401 15.93 14.2401ZM10.89 8.00008C10.9146 7.95726 10.9493 7.92116 10.9912 7.895C11.0331 7.86883 11.0807 7.8534 11.13 7.85008C11.4 7.85008 11.46 8.18008 11.46 8.45008C11.4302 9.0907 11.309 9.72376 11.1 10.3301C10.7384 9.60775 10.6634 8.77541 10.89 8.00008ZM10.83 13.8601C11.0891 13.3091 11.3194 12.745 11.52 12.1701C11.8095 12.617 12.1446 13.0325 12.52 13.4101C12.52 13.4101 11.58 13.6201 10.86 13.8601H10.83ZM9.00001 15.0901C8.35001 16.2301 7.62001 17.0001 7.23001 17.0001C7.16736 16.9891 7.10669 16.9689 7.05001 16.9401C7.02615 16.9232 7.0059 16.9017 6.99044 16.8769C6.97497 16.8521 6.96461 16.8244 6.95996 16.7956C6.9553 16.7667 6.95645 16.7372 6.96332 16.7088C6.9702 16.6804 6.98267 16.6536 7.00001 16.6301C7.05001 16.2001 7.84001 15.6301 9.00001 15.0901Z" fill="#E54629"/>
</svg>
