<svg width="1841" height="52" viewBox="0 0 1841 52" fill="none" xmlns="http://www.w3.org/2000/svg">
<path d="M581.901 49.8741C581.331 50.5857 580.469 51 579.558 51H4.00001C2.34316 51 1 49.6569 1 48V4C1 2.34315 2.34315 1 4 1H579.558C580.469 1 581.331 1.41427 581.901 2.12591L599.501 24.1259C600.377 25.2216 600.377 26.7784 599.501 27.8741L581.901 49.8741Z" fill="white" stroke="#F59E2A" stroke-width="2" stroke-miterlimit="10"/>
<path d="M1201.9 49.8741C1201.33 50.5857 1200.47 51 1199.56 51H597.242C594.726 51 593.328 48.0902 594.899 46.1259L609.501 27.8741C610.377 26.7784 610.377 25.2216 609.501 24.1259L594.899 5.87409C593.328 3.9098 594.726 1 597.242 1H1199.56C1200.47 1 1201.33 1.41427 1201.9 2.12591L1219.5 24.1259C1220.38 25.2216 1220.38 26.7784 1219.5 27.8741L1201.9 49.8741Z" fill="#FAFAFA" stroke="#E2E2E1" stroke-miterlimit="10"/>
<path d="M1821.9 49.8741C1821.33 50.5857 1820.47 51 1819.56 51H1217.24C1214.73 51 1213.33 48.0902 1214.9 46.1259L1229.5 27.8741C1230.38 26.7784 1230.38 25.2216 1229.5 24.1259L1214.9 5.87409C1213.33 3.9098 1214.73 1 1217.24 1H1819.56C1820.47 1 1821.33 1.41427 1821.9 2.12591L1839.5 24.1259C1840.38 25.2216 1840.38 26.7784 1839.5 27.8741L1821.9 49.8741Z" fill="#FAFAFA" stroke="#E2E2E1" stroke-miterlimit="10"/>
</svg>
