<svg width="1841" height="52" viewBox="0 0 1841 52" fill="none" xmlns="http://www.w3.org/2000/svg">
<path d="M580.901 49.8741C580.331 50.5857 579.469 51 578.558 51H3.00001C1.34316 51 0 49.6569 0 48V4C0 2.34315 1.34315 1 3 1H578.558C579.469 1 580.331 1.41427 580.901 2.12591L598.501 24.1259C599.377 25.2216 599.377 26.7784 598.501 27.8741L580.901 49.8741Z" fill="#009245"/>
<path d="M1200.9 49.8741C1200.33 50.5857 1199.47 51 1198.56 51H596.242C593.726 51 592.328 48.0902 593.899 46.1259L608.501 27.8741C609.377 26.7784 609.377 25.2216 608.501 24.1259L593.899 5.87409C592.328 3.9098 593.726 1 596.242 1H1198.56C1199.47 1 1200.33 1.41427 1200.9 2.12591L1218.5 24.1259C1219.38 25.2216 1219.38 26.7784 1218.5 27.8741L1200.9 49.8741Z" fill="#009245"/>
<path d="M1820.9 49.8741C1820.33 50.5857 1819.47 51 1818.56 51H1216.24C1213.73 51 1212.33 48.0902 1213.9 46.1259L1228.5 27.8741C1229.38 26.7784 1229.38 25.2216 1228.5 24.1259L1213.9 5.87409C1212.33 3.9098 1213.73 1 1216.24 1H1818.56C1819.47 1 1820.33 1.41427 1820.9 2.12591L1838.5 24.1259C1839.38 25.2216 1839.38 26.7784 1838.5 27.8741L1820.9 49.8741Z" fill="white" stroke="#F59E2A" stroke-width="2" stroke-miterlimit="10"/>
</svg>
