<svg width="20" height="24" viewBox="0 0 20 24" fill="none" xmlns="http://www.w3.org/2000/svg">
<path d="M20 5.15984C20.0054 4.68585 19.8236 4.22887 19.4941 3.88812C19.1645 3.54736 18.7139 3.35035 18.24 3.33984H5C4.5261 3.35035 4.07546 3.54736 3.74594 3.88812C3.41642 4.22887 3.23462 4.68585 3.24 5.15984V22.1598C3.23469 22.3962 3.27601 22.6314 3.36159 22.8518C3.44718 23.0722 3.57535 23.2736 3.73879 23.4445C3.90223 23.6154 4.09774 23.7523 4.31415 23.8476C4.53055 23.9429 4.7636 23.9946 5 23.9998H15L20 19.1398V5.15984Z" fill="#DADEE0"/>
<path d="M3.23999 5.16C3.23461 4.68601 3.41642 4.22903 3.74594 3.88827C4.07546 3.54752 4.52609 3.3505 4.99999 3.34H16.76V1.82C16.7654 1.34601 16.5836 0.889027 16.2541 0.548273C15.9245 0.20752 15.4739 0.0105032 15 0L1.75999 0C1.28609 0.0105032 0.835456 0.20752 0.505936 0.548273C0.176416 0.889027 -0.00538913 1.34601 -5.84064e-06 1.82V18.82C-0.00538913 19.294 0.176416 19.751 0.505936 20.0917C0.835456 20.4325 1.28609 20.6295 1.75999 20.64H3.23999V5.16Z" fill="#0079BE"/>
<path d="M16.76 19.1401H20L15 24.0001V21.0001C14.992 20.7621 15.0313 20.5248 15.1157 20.3021C15.2001 20.0793 15.3278 19.8756 15.4915 19.7026C15.6552 19.5295 15.8517 19.3907 16.0694 19.2942C16.2871 19.1977 16.5219 19.1453 16.76 19.1401Z" fill="#F2F2F2"/>
<path d="M6.59 9.08008H8.07L9.38 14.7401L10.88 9.08008H12.3L13.8 14.7401L15.11 9.08008H16.57L14.57 16.2701H13.14L11.62 10.8801L10.12 16.2701H8.57L6.59 9.08008Z" fill="#0079BE"/>
</svg>
